HIERARCHY
ROOT Hips
{
	OFFSET 0.000000 0.000000 0.000000
	CHANNELS 6 Xposition Yposition Zposition Zrotation Yrotation Xrotation 
	JOINT LHipJoint
	{
		OFFSET 0.000000 0.000000 0.000000
		CHANNELS 3 Zrotation Yrotation Xrotation
		JOINT LeftUpLeg
		{
			OFFSET 1.363060 -1.794630 0.839290
			CHANNELS 3 Zrotation Yrotation Xrotation
			JOINT LeftLeg
			{
				OFFSET 2.448110 -6.726130 0.000000
				CHANNELS 3 Zrotation Yrotation Xrotation
				JOINT LeftFoot
				{
					OFFSET 2.562200 -7.039590 0.000000
					CHANNELS 3 Zrotation Yrotation Xrotation
					JOINT LeftToeBase
					{
						OFFSET 0.157640 -0.433110 2.322550
						CHANNELS 3 Zrotation Yrotation Xrotation
						End Site
						{
							OFFSET 0.000000 0.000000 0.000000
						}
					}
				}
			}
		}
	}
	JOINT RHipJoint
	{
		OFFSET 0.000000 0.000000 0.000000
		CHANNELS 3 Zrotation Yrotation Xrotation
		JOINT RightUpLeg
		{
			OFFSET -1.305520 -1.794630 0.839290
			CHANNELS 3 Zrotation Yrotation Xrotation
			JOINT RightLeg
			{
				OFFSET -2.542530 -6.985550 0.000000
				CHANNELS 3 Zrotation Yrotation Xrotation
				JOINT RightFoot
				{
					OFFSET -2.568260 -7.056230 0.000000
					CHANNELS 3 Zrotation Yrotation Xrotation
					JOINT RightToeBase
					{
						OFFSET -0.164730 -0.452590 2.363150
						CHANNELS 3 Zrotation Yrotation Xrotation
						End Site
						{
							OFFSET 0.000000 0.000000 0.000000
						}
					}
				}
			}
		}
	}
	JOINT LowerBack
	{
		OFFSET 0.000000 0.000000 0.000000
		CHANNELS 3 Zrotation Yrotation Xrotation
		JOINT Spine
		{
			OFFSET 0.028270 2.035590 -0.193380
			CHANNELS 3 Zrotation Yrotation Xrotation
			JOINT Spine1
			{
				OFFSET 0.056720 2.048850 -0.042750
				CHANNELS 3 Zrotation Yrotation Xrotation
				JOINT Neck
				{
					OFFSET 0.000000 0.000000 0.000000
					CHANNELS 3 Zrotation Yrotation Xrotation
					JOINT Neck1
					{
						OFFSET -0.054170 1.746240 0.172020
						CHANNELS 3 Zrotation Yrotation Xrotation
						JOINT Head
						{
							OFFSET 0.104070 1.761360 -0.123970
							CHANNELS 3 Zrotation Yrotation Xrotation
							End Site
							{
								OFFSET 0.000000 0.000000 0.000000
							}
						}
					}
				}
				JOINT LeftShoulder
				{
					OFFSET 0.000000 0.000000 0.000000
					CHANNELS 3 Zrotation Yrotation Xrotation
					JOINT LeftArm
					{
						OFFSET 3.362410 1.200890 -0.311210
						CHANNELS 3 Zrotation Yrotation Xrotation
						JOINT LeftForeArm
						{
							OFFSET 4.983000 -0.000000 -0.000000
							CHANNELS 3 Zrotation Yrotation Xrotation
							JOINT LeftHand
							{
								OFFSET 3.483560 -0.000000 -0.000000
								CHANNELS 3 Zrotation Yrotation Xrotation
								JOINT LeftFingerBase
								{
									OFFSET 0.000000 0.000000 0.000000
									CHANNELS 3 Zrotation Yrotation Xrotation
									JOINT LeftHandIndex1
									{
										OFFSET 0.715260 -0.000000 -0.000000
										CHANNELS 3 Zrotation Yrotation Xrotation
										End Site
										{
											OFFSET 0.000000 0.000000 0.000000
										}
									}
								}
								JOINT LThumb
								{
									OFFSET 0.000000 0.000000 0.000000
									CHANNELS 3 Zrotation Yrotation Xrotation
									End Site
									{
										OFFSET 0.000000 0.000000 0.000000
									}
								}
							}
						}
					}
				}
				JOINT RightShoulder
				{
					OFFSET 0.000000 0.000000 0.000000
					CHANNELS 3 Zrotation Yrotation Xrotation
					JOINT RightArm
					{
						OFFSET -3.136600 1.374050 -0.404650
						CHANNELS 3 Zrotation Yrotation Xrotation
						JOINT RightForeArm
						{
							OFFSET -5.241900 -0.000000 -0.000000
							CHANNELS 3 Zrotation Yrotation Xrotation
							JOINT RightHand
							{
								OFFSET -3.444170 -0.000000 -0.000000
								CHANNELS 3 Zrotation Yrotation Xrotation
								JOINT RightFingerBase
								{
									OFFSET 0.000000 0.000000 0.000000
									CHANNELS 3 Zrotation Yrotation Xrotation
									JOINT RightHandIndex1
									{
										OFFSET -0.622530 -0.000000 -0.000000
										CHANNELS 3 Zrotation Yrotation Xrotation
										End Site
										{
											OFFSET 0.000000 0.000000 0.000000
										}
									}
								}
								JOINT RThumb
								{
									OFFSET 0.000000 0.000000 0.000000
									CHANNELS 3 Zrotation Yrotation Xrotation
									End Site
									{
										OFFSET 0.000000 0.000000 0.000000
									}
								}
							}
						}
					}
				}
			}
		}
	}
}
MOTION
Frames: 12
Frame Time: 0.033333
-1.871224 17.421014 23.599899 0.850171 3.458715 9.522105 -5.944849 8.277161 -3.270329 -16.432125 -2.857937 -6.873599 -10.448693 -10.268613 -26.838468 0.260331 10.358380 21.620961 0.000000 0.000000 0.000000 11.441032 -5.778203 -3.721215 8.873974 2.046868 -7.483892 -16.767891 -24.662557 52.335148 17.686726 -49.957618 23.280866 0.000000 0.000000 0.000000 -3.714221 0.242168 14.333164 2.340287 0.339783 -3.994823 0.936524 0.323777 -4.641096 -0.591643 0.191131 -2.152396 3.671347 -0.244541 5.778445 0.000000 0.000000 0.000000 9.983428 6.567412 9.131808 -71.295584 -8.565083 15.428309 -4.993421 -86.537364 -0.056817 6.137812 -16.843781 -0.045920 6.320535 -16.792952 0.000000 0.000000 0.000000 0.000000 0.000000 0.000000 0.000000 -8.373622 -12.613630 2.060574 74.100151 7.314427 16.974226 170.843388 76.786891 -179.772830 -4.027535 9.670833 0.110816 -4.058738 9.661065 0.000000 0.000000 0.000000 0.000000 0.000000 0.000000 0.000000 
-1.876673 17.452593 23.805544 1.243314 3.515699 9.682304 -5.539482 8.356269 -3.721669 -17.409433 -2.808655 -6.502062 -10.278641 -9.669650 -24.985386 0.091357 8.829041 18.553348 0.000000 0.000000 0.000000 11.509747 -6.139162 -3.007580 8.258122 2.098741 -7.790022 -16.325530 -24.465311 51.761443 17.924600 -50.967557 23.943512 0.000000 0.000000 0.000000 -3.783370 0.413906 14.237755 2.289702 0.349940 -3.851980 0.414226 0.416362 -5.031452 -0.494710 0.224704 -1.772507 3.746276 -0.256723 5.944783 0.000000 0.000000 0.000000 9.707769 6.626821 9.007031 -71.146063 -8.364355 16.641673 -6.411232 -85.858702 0.019754 5.639607 -16.840914 -0.006512 5.808588 -16.797604 0.000000 0.000000 0.000000 0.000000 0.000000 0.000000 0.000000 -8.669119 -12.954621 1.805705 74.895402 7.427657 16.298059 169.940673 75.741786 -179.784446 -4.041239 9.294342 0.105184 -4.070561 9.284933 0.000000 0.000000 0.000000 0.000000 0.000000 0.000000 0.000000 
-1.880497 17.486717 24.009271 1.638358 3.598051 9.839518 -5.181197 8.472295 -4.178935 -18.362830 -2.799002 -6.216011 -10.087856 -9.003579 -22.959953 -0.041243 7.312030 15.501559 0.000000 0.000000 0.000000 11.602592 -6.550685 -2.225821 7.569788 2.143313 -8.155192 -15.766383 -24.262031 51.119127 18.182840 -51.930121 24.470262 0.000000 0.000000 0.000000 -3.824879 0.596993 14.089167 2.271470 0.349417 -3.722990 -0.164059 0.520413 -5.495041 -0.326304 0.252572 -1.360546 3.794011 -0.262365 6.055902 0.000000 0.000000 0.000000 9.199754 6.760955 8.890715 -70.934823 -7.984560 18.238521 -8.511702 -84.759221 0.126723 4.905925 -16.766150 0.048696 5.053741 -16.733294 0.000000 0.000000 0.000000 0.000000 0.000000 0.000000 0.000000 -8.858095 -13.318364 1.634922 75.526205 7.297056 15.822100 169.441993 75.035566 -179.792700 -4.015805 8.999885 0.101195 -4.043621 8.990918 0.000000 0.000000 0.000000 0.000000 0.000000 0.000000 0.000000 
-1.881490 17.522869 24.210364 2.030299 3.711364 9.993175 -4.878772 8.626786 -4.632459 -19.277356 -2.837927 -6.025454 -9.882673 -8.273843 -20.767222 -0.142612 5.823664 12.499926 0.000000 0.000000 0.000000 11.716570 -7.013600 -1.382416 6.819468 2.183655 -8.574687 -15.095871 -24.048975 50.413715 18.464231 -52.850588 24.871126 0.000000 0.000000 0.000000 -3.832627 0.794831 13.885755 2.279844 0.345548 -3.600829 -0.795679 0.638313 -6.049550 -0.088806 0.274409 -0.907380 3.815944 -0.261784 6.118585 0.000000 0.000000 0.000000 8.457881 6.973513 8.791105 -70.636049 -7.463493 20.108763 -11.355856 -83.147436 0.258364 3.940058 -16.554491 0.116799 4.059454 -16.533998 0.000000 0.000000 0.000000 0.000000 0.000000 0.000000 0.000000 -8.935790 -13.708789 1.539426 75.982539 6.884597 15.547746 169.303377 74.629256 -179.797733 -3.967760 8.801001 0.098771 -3.994590 8.792440 0.000000 0.000000 0.000000 0.000000 0.000000 0.000000 0.000000 
-1.879655 17.560527 24.408142 2.414238 3.861410 10.142371 -4.640238 8.819000 -5.071934 -20.138815 -2.934460 -5.938209 -9.656831 -7.486726 -18.417052 -0.217656 4.376611 9.581432 0.000000 0.000000 0.000000 11.849398 -7.529588 -0.481992 6.017040 2.222539 -9.043250 -14.312071 -23.826334 49.647476 18.777796 -53.736445 25.144337 0.000000 0.000000 0.000000 -3.801837 1.012201 13.622785 2.311031 0.347397 -3.478067 -1.479932 0.773541 -6.716252 0.221445 0.289113 -0.403823 3.809825 -0.255042 6.135671 0.000000 0.000000 0.000000 7.472564 7.279748 8.723383 -70.220289 -6.855755 22.080604 -15.055427 -80.864019 0.405988 2.749343 -16.113422 0.193356 2.834028 -16.105698 0.000000 0.000000 0.000000 0.000000 0.000000 0.000000 0.000000 -8.897438 -14.136175 1.516419 76.250630 6.149291 15.476352 169.506028 74.505379 -179.799681 -3.907625 8.710099 0.097839 -3.934092 8.701841 0.000000 0.000000 0.000000 0.000000 0.000000 0.000000 0.000000 
-1.876879 17.597613 24.599661 2.765154 3.851481 10.282153 -4.463872 9.087293 -5.426851 -20.913555 -3.049625 -5.957542 -9.367460 -6.686686 -16.136772 -0.277221 3.093959 6.877420 0.000000 0.000000 0.000000 12.043958 -7.913063 0.359942 5.113149 2.120428 -9.411907 -13.611393 -23.671867 48.777867 18.812829 -54.292265 25.628581 0.000000 0.000000 0.000000 -3.863118 1.136046 13.316812 2.318013 0.329690 -3.368563 -1.848121 0.826132 -7.147808 0.417059 0.287024 -0.107371 3.763730 -0.247523 6.102184 0.000000 0.000000 0.000000 6.759865 7.480243 8.746583 -69.919337 -6.492617 23.036913 -17.315627 -79.316673 0.483580 2.061996 -15.753827 0.233687 2.127169 -15.752152 0.000000 0.000000 0.000000 0.000000 0.000000 0.000000 0.000000 -8.730162 -14.375161 1.558981 76.155276 5.517570 15.637404 169.863134 74.680041 -179.797619 -3.874241 8.762078 0.098846 -3.901066 8.753863 0.000000 0.000000 0.000000 0.000000 0.000000 0.000000 0.000000 
-1.872670 17.633611 24.784738 3.079279 3.651456 10.415819 -4.346785 9.429829 -5.694262 -21.592748 -3.170313 -6.074735 -9.036226 -5.885211 -13.970587 -0.321666 1.978985 4.399723 0.000000 0.000000 0.000000 12.293699 -8.161093 1.144229 4.116716 1.890897 -9.684673 -13.024538 -23.596671 47.808893 18.518962 -54.490154 26.392225 0.000000 0.000000 0.000000 -4.019627 1.154972 12.956852 2.303630 0.282777 -3.274058 -1.882816 0.794852 -7.315800 0.477509 0.271318 -0.040644 3.675950 -0.238983 6.007912 0.000000 0.000000 0.000000 6.341993 7.548340 8.848452 -69.789904 -6.289842 23.220082 -17.910495 -78.793871 0.502824 1.879610 -15.623176 0.243751 1.939385 -15.622940 0.000000 0.000000 0.000000 0.000000 0.000000 0.000000 0.000000 -8.415557 -14.399545 1.676872 75.679859 5.031444 16.053934 170.396121 75.183079 -179.790996 -3.862342 8.963500 0.102068 -3.890236 8.955102 0.000000 0.000000 0.000000 0.000000 0.000000 0.000000 0.000000 
-1.867471 17.668186 24.962861 3.353980 3.244706 10.544709 -4.282742 9.841619 -5.875993 -22.173062 -3.285009 -6.277420 -8.677994 -5.093409 -11.954785 -0.349666 1.029326 2.152779 0.000000 0.000000 0.000000 12.587071 -8.284120 1.875506 3.045118 1.555258 -9.872801 -12.563259 -23.602751 46.750344 17.877188 -54.320183 27.465498 0.000000 0.000000 0.000000 -4.268253 1.067266 12.535985 2.266557 0.201621 -3.195658 -1.584250 0.680406 -7.200467 0.408650 0.241415 -0.214729 3.540843 -0.228798 5.841895 0.000000 0.000000 0.000000 6.217528 7.483812 9.015921 -69.849197 -6.219817 22.727342 -16.805809 -79.373242 0.469139 2.190162 -15.763659 0.226329 2.257771 -15.760962 0.000000 0.000000 0.000000 0.000000 0.000000 0.000000 0.000000 -7.955352 -14.199339 1.883223 74.827670 4.733836 16.721492 171.144353 76.050089 -179.779793 -3.858914 9.303592 0.107516 -3.888524 9.294857 0.000000 0.000000 0.000000 0.000000 0.000000 0.000000 0.000000 
-1.861778 17.700932 25.133961 3.587234 2.601194 10.667653 -4.261182 10.322193 -5.971742 -22.656929 -3.377032 -6.547358 -8.305886 -4.322897 -10.135806 -0.359938 0.246939 0.133511 0.000000 0.000000 0.000000 12.916418 -8.283566 2.559569 1.901155 1.121792 -9.981286 -12.235817 -23.694953 45.601952 16.855588 -53.736722 28.884361 0.000000 0.000000 0.000000 -4.618963 0.866953 12.043818 2.196370 0.081219 -3.137666 -0.917720 0.471524 -6.746081 0.228541 0.189928 -0.665569 3.339495 -0.215808 5.581523 0.000000 0.000000 0.000000 6.405263 7.292649 9.248242 -70.102838 -6.346926 21.341849 -13.901464 -81.042481 0.369991 3.059502 -16.141348 0.174955 3.150584 -16.130727 0.000000 0.000000 0.000000 0.000000 0.000000 0.000000 0.000000 -7.352401 -13.748864 2.206203 73.565078 4.692105 17.638283 172.204305 77.377064 -179.763980 -3.844074 9.771497 0.115203 -3.875977 9.762377 0.000000 0.000000 0.000000 0.000000 0.000000 0.000000 0.000000 
-1.856689 17.731322 25.297706 3.767340 2.049163 10.752170 -4.272604 10.680394 -6.059052 -23.004492 -3.417999 -6.728596 -7.937666 -3.636965 -8.536475 -0.342242 -0.429364 -1.634229 0.000000 0.000000 0.000000 13.205429 -8.304218 3.144534 1.008838 0.812865 -10.058551 -12.019910 -23.658273 44.675567 16.030068 -53.471012 30.176914 0.000000 0.000000 0.000000 -4.897532 0.709415 11.613761 2.162715 -0.018421 -3.099036 -0.406700 0.310837 -6.389136 0.170412 0.138008 -1.052948 3.135131 -0.199359 5.301452 0.000000 0.000000 0.000000 6.425612 7.202184 9.434810 -70.260590 -6.399726 20.287036 -12.085370 -81.987113 0.300736 3.621897 -16.318461 0.139167 3.728222 -16.301939 0.000000 0.000000 0.000000 0.000000 0.000000 0.000000 0.000000 -6.845766 -13.385645 2.554507 72.485650 4.581126 18.429129 173.374558 78.715002 -179.750421 -3.786524 10.169845 0.121794 -3.820321 10.160618 0.000000 0.000000 0.000000 0.000000 0.000000 0.000000 0.000000 
-1.852857 17.759036 25.453950 3.899738 1.607399 10.793778 -4.304676 10.889177 -6.146670 -23.226149 -3.387195 -6.783233 -7.577789 -3.054205 -7.202080 -0.307015 -1.000083 -3.157993 0.000000 0.000000 0.000000 13.463269 -8.323912 3.622807 0.360048 0.624465 -10.093466 -11.926086 -23.503021 43.995139 15.435105 -53.554247 31.298010 0.000000 0.000000 0.000000 -5.110509 0.596870 11.261165 2.184331 -0.096468 -3.082643 -0.074877 0.205180 -6.159716 0.228716 0.090135 -1.362610 2.936293 -0.179913 5.005938 0.000000 0.000000 0.000000 6.264420 7.208632 9.572017 -70.329756 -6.312378 19.772554 -11.418407 -82.246734 0.273487 3.821427 -16.343206 0.125211 3.932622 -16.324485 0.000000 0.000000 0.000000 0.000000 0.000000 0.000000 0.000000 -6.438680 -13.123633 2.920480 71.618756 4.370191 19.088221 174.628000 80.034531 -179.739169 -3.691028 10.500053 0.127272 -3.726252 10.490989 0.000000 0.000000 0.000000 0.000000 0.000000 0.000000 0.000000 
-1.850805 17.784041 25.603197 4.005031 1.264401 10.828860 -4.359828 10.937241 -6.262777 -23.345481 -3.277015 -6.710213 -7.227938 -2.572900 -6.145329 -0.266030 -1.469785 -4.466182 0.000000 0.000000 0.000000 13.731146 -8.321067 4.088040 -0.252483 0.450003 -10.100848 -11.710127 -23.352783 43.333242 15.012149 -53.763472 32.174316 0.000000 0.000000 0.000000 -5.288359 0.530996 10.953464 2.275007 -0.149337 -3.086406 0.073634 0.157986 -6.073666 0.390120 0.048743 -1.591991 2.748555 -0.158164 4.699680 0.000000 0.000000 0.000000 5.924669 7.309674 9.663516 -70.319262 -6.066777 19.846833 -11.877357 -81.855740 0.290483 3.652757 -16.236285 0.134232 3.758242 -16.219505 0.000000 0.000000 0.000000 0.000000 0.000000 0.000000 0.000000 -6.126025 -12.965935 3.299700 70.967502 4.046510 19.620787 175.939221 81.316811 -179.730118 -3.564349 10.769463 0.131693 -3.600541 10.760796 0.000000 0.000000 0.000000 0.000000 0.000000 0.000000 0.000000 
